<svg width="48" height="48" viewBox="0 0 48 48" fill="none" xmlns="http://www.w3.org/2000/svg">
<path d="M39.8614 35.556C39.8654 35.9334 39.7681 36.4267 39.6667 36.8334C38.9587 39.6934 35.8147 42.9027 31.3894 42.6107C27.3787 42.3467 24.1121 40.4214 24.1121 37.7214C24.1121 35.0214 27.3707 32.832 31.3894 32.832C35.4081 32.832 39.8361 32.856 39.8614 35.556Z" fill="#EA596E"/>
<path d="M31.3894 33.2854C29.2307 33.2854 24.304 33.8827 23.1734 33.8827C21.176 33.8827 19.556 35.1361 19.556 36.6827C19.556 37.4267 19.9374 38.0987 20.548 38.6001C20.548 38.6001 21.8894 39.9454 24.3054 39.3001C25.3627 39.0174 27.0827 36.9187 30.1107 36.5854C31.6187 36.4187 34.444 37.5854 39.4094 37.6134C39.6227 37.1547 39.6667 36.8361 39.6667 36.8361C39.6667 34.1334 35.408 33.2854 31.3894 33.2854Z" fill="#DD2E44"/>
<path d="M39.6667 36.8334C39.6667 36.8334 42.5787 36.2427 44.3894 33.8614C46.5 31.0841 46.2227 28.1121 46.2227 28.1121C48.3614 24.1121 45.556 20.3614 45.556 20.3614C45.2774 16.1387 42.6667 14.3894 42.6667 14.3894C40.972 10.3614 37.2227 9.27873 37.2227 9.27873C34.2787 5.83473 29.056 5.94539 29.056 5.94539C29.056 5.94539 24.1627 4.15206 17.4454 6.16806C16.3347 6.50139 12.612 7.27873 9.88938 8.94539C1.30805 14.1987 0.658714 22.3907 0.778714 23.7227C1.44405 31.1667 6.66671 32.5001 10 33.2774C10.7774 35.3881 13.6387 39.2774 18.7774 37.8334C25.1107 36.7227 27.7774 34.8334 29.3334 34.8334C30.8894 34.8334 35.2227 36.5001 39.6667 36.8334Z" fill="#F4ABBA"/>
<path d="M23.6493 24.8639C26.7533 23.1906 28.436 23.3466 29.9213 23.4813C30.3933 23.5239 30.84 23.5573 31.292 23.5546C33.9373 23.4946 36.08 22.3799 37.028 21.3013C37.1367 21.1672 37.1893 20.9963 37.1748 20.8244C37.1603 20.6524 37.0798 20.4927 36.9502 20.3788C36.8205 20.2648 36.6519 20.2055 36.4795 20.2132C36.307 20.2208 36.1443 20.2949 36.0253 20.4199C35.2946 21.2519 33.4933 22.1706 31.2613 22.2213C30.8613 22.2333 30.46 22.1933 30.044 22.1546C28.4506 22.0066 26.472 21.8253 23.016 23.6906C22.1293 24.1693 20.9133 24.3466 19.596 24.4799C16.6666 20.2519 18.4293 16.5693 18.9333 15.6919C18.9826 15.6946 19.0306 15.7106 19.0813 15.7106C19.6146 15.7106 20.1506 15.5799 20.636 15.3053C20.7838 15.2153 20.8909 15.0713 20.9345 14.9038C20.9781 14.7362 20.9548 14.5583 20.8696 14.4077C20.7844 14.257 20.6439 14.1454 20.4779 14.0964C20.3119 14.0474 20.1333 14.065 19.98 14.1453C19.5605 14.3762 19.0694 14.4403 18.6047 14.3249C18.14 14.2095 17.736 13.923 17.4733 13.5226C17.3742 13.3828 17.225 13.2865 17.0567 13.2538C16.8885 13.2211 16.7141 13.2545 16.5698 13.347C16.4255 13.4395 16.3223 13.584 16.2818 13.7505C16.2412 13.917 16.2664 14.0928 16.352 14.2413C16.668 14.7359 17.1133 15.1079 17.616 15.3573C16.9213 16.7679 15.6026 20.4773 18.112 24.6253C16.3466 24.7986 14.5786 25.0479 13.1946 25.9399C12.2219 26.5773 11.3734 27.3865 10.6906 28.3279C9.85198 28.1839 6.78131 27.4279 6.24531 24.0199C6.57865 23.7613 6.84798 23.4199 7.01465 22.9986C7.04687 22.9172 7.06273 22.8302 7.06134 22.7427C7.05995 22.6551 7.04132 22.5687 7.00653 22.4883C6.97174 22.408 6.92146 22.3353 6.85857 22.2744C6.79568 22.2134 6.7214 22.1655 6.63998 22.1333C6.55856 22.1011 6.47159 22.0852 6.38404 22.0866C6.29649 22.088 6.21007 22.1066 6.12972 22.1414C6.04936 22.1762 5.97665 22.2265 5.91573 22.2894C5.8548 22.3522 5.80687 22.4265 5.77465 22.5079C5.72423 22.6481 5.64399 22.7756 5.53948 22.8818C5.43497 22.9879 5.30868 23.07 5.16931 23.1226C5.02809 23.1695 4.87842 23.1855 4.73047 23.1694C4.58253 23.1533 4.4398 23.1055 4.31198 23.0293C4.23546 22.9867 4.15132 22.9597 4.06434 22.9496C3.97737 22.9396 3.88927 22.9468 3.80508 22.9708C3.63504 23.0193 3.49124 23.1334 3.40531 23.2879C3.31938 23.4425 3.29836 23.6248 3.34687 23.7948C3.39538 23.9649 3.50945 24.1087 3.66398 24.1946C4.04265 24.4053 4.44798 24.5119 4.85065 24.5119C4.89998 24.5119 4.94665 24.4893 4.99598 24.4866C5.63065 27.7039 8.17331 29.1173 9.97198 29.5453C9.73648 30.0464 9.58727 30.5838 9.53065 31.1346C9.51511 31.3107 9.57015 31.4858 9.68367 31.6213C9.79719 31.7568 9.95989 31.8417 10.136 31.8573L10.196 31.8599C10.3626 31.8599 10.5232 31.7975 10.6461 31.685C10.769 31.5724 10.8453 31.4179 10.86 31.2519C11.004 29.6346 12.5466 27.9453 13.9173 27.0586C15.2026 26.2306 17.084 26.0559 18.9053 25.8866C20.672 25.7253 22.3413 25.5706 23.6493 24.8639ZM40.804 22.8586C40.762 22.9355 40.7355 23.0199 40.7261 23.107C40.7167 23.1941 40.7245 23.2822 40.7491 23.3662C40.7738 23.4503 40.8147 23.5287 40.8697 23.5969C40.9246 23.6652 40.9924 23.7219 41.0693 23.7639C41.1462 23.806 41.2306 23.8324 41.3177 23.8418C41.4048 23.8513 41.4929 23.8434 41.5769 23.8188C41.7467 23.769 41.8898 23.6538 41.9746 23.4986C42 23.4533 44.4306 18.8999 39.88 15.8399C39.7332 15.7413 39.5533 15.705 39.3798 15.739C39.2062 15.773 39.0533 15.8745 38.9546 16.0213C38.856 16.168 38.8197 16.348 38.8537 16.5215C38.8877 16.695 38.9892 16.8479 39.136 16.9466C42.6613 19.3173 40.8813 22.7146 40.804 22.8586ZM13.168 12.0933C13.2738 12.0936 13.3782 12.0686 13.4723 12.0204C13.5665 11.9721 13.6478 11.902 13.7093 11.8159C15.6426 9.12661 18.32 10.0466 18.4333 10.0893C18.5975 10.1435 18.7764 10.1317 18.9321 10.0566C19.0878 9.98139 19.2083 9.84863 19.268 9.68633C19.3277 9.52403 19.3219 9.34489 19.252 9.18672C19.1821 9.02855 19.0535 8.90373 18.8933 8.83861C17.6133 8.36394 14.6573 8.21461 12.6266 11.0386C12.5554 11.1382 12.5129 11.2555 12.5039 11.3777C12.4949 11.4998 12.5197 11.6221 12.5757 11.731C12.6316 11.84 12.7165 11.9314 12.8209 11.9953C12.9254 12.0592 13.0455 12.0931 13.168 12.0933ZM30.5973 9.57594C33.564 9.33461 34.9133 11.4853 34.9746 11.5866C35.0643 11.7392 35.2109 11.8499 35.3822 11.8944C35.467 11.9165 35.5553 11.9216 35.6421 11.9095C35.7289 11.8974 35.8124 11.8683 35.888 11.8239C35.9635 11.7796 36.0296 11.7207 36.0824 11.6508C36.1352 11.5809 36.1738 11.5012 36.1958 11.4164C36.2178 11.3316 36.223 11.2433 36.2109 11.1565C36.1988 11.0697 36.1697 10.9862 36.1253 10.9106C36.0533 10.7893 34.3386 7.95328 30.4933 8.24661C30.406 8.25344 30.3209 8.27739 30.2429 8.3171C30.1649 8.35681 30.0954 8.41151 30.0386 8.47805C29.9237 8.61246 29.8669 8.78699 29.8806 8.96328C29.8944 9.13956 29.9777 9.30314 30.1121 9.41804C30.2465 9.53293 30.421 9.58973 30.5973 9.57594ZM42.7973 29.0573C42.4693 29.0386 42.108 29.2986 42.0786 29.6666C42.076 29.6906 41.864 31.9586 39.532 32.7253C39.3795 32.7732 39.2494 32.8744 39.1654 33.0104C39.0814 33.1463 39.0491 33.308 39.0745 33.4658C39.0999 33.6236 39.1813 33.767 39.3037 33.8697C39.4262 33.9724 39.5815 34.0277 39.7413 34.0253C39.812 34.0253 39.8822 34.014 39.9493 33.9919C43.112 32.9546 43.3973 29.9066 43.408 29.7773C43.422 29.6009 43.3656 29.4262 43.2512 29.2913C43.1368 29.1564 42.9736 29.0722 42.7973 29.0573Z" fill="#EA596E"/>
<path d="M9.79602 22.5786C9.7698 22.6642 9.76106 22.7541 9.77033 22.8431C9.7796 22.9321 9.80669 23.0183 9.84998 23.0966C9.89328 23.1749 9.95189 23.2437 10.0223 23.2988C10.0928 23.354 10.1736 23.3944 10.26 23.4177C10.3464 23.441 10.4366 23.4466 10.5252 23.4343C10.6138 23.422 10.699 23.392 10.7758 23.346C10.8526 23.3001 10.9193 23.2391 10.972 23.1669C11.0248 23.0946 11.0624 23.0124 11.0827 22.9253C11.2111 22.4633 11.5096 22.0671 11.9182 21.8162C12.3269 21.5654 12.8153 21.4786 13.2854 21.5733C13.3711 21.5912 13.4595 21.5921 13.5455 21.5759C13.6316 21.5597 13.7136 21.5267 13.7869 21.4788C13.8602 21.4308 13.9233 21.369 13.9727 21.2966C14.0221 21.2243 14.0567 21.143 14.0747 21.0573C14.0926 20.9716 14.0935 20.8832 14.0773 20.7971C14.0611 20.7111 14.0281 20.629 13.9802 20.5557C13.9322 20.4824 13.8704 20.4193 13.798 20.3699C13.7257 20.3205 13.6444 20.2859 13.5587 20.2679C13.0038 20.1554 12.4289 20.195 11.8947 20.3826C10.34 17.7239 10.6427 15.1026 10.6467 15.0746C10.6695 14.8995 10.6221 14.7225 10.515 14.5822C10.4078 14.4418 10.2496 14.3495 10.0747 14.3253C9.90006 14.3028 9.72359 14.3499 9.5834 14.4564C9.4432 14.563 9.35052 14.7203 9.32535 14.8946C9.30802 15.0239 8.95202 17.9826 10.7427 21.0466C10.2856 21.4549 9.95673 21.9871 9.79602 22.5786ZM24.7014 19.2853C24.9675 19.0431 25.3154 18.9106 25.6753 18.9143C26.0351 18.918 26.3802 19.0577 26.6414 19.3053C26.7686 19.4277 26.9391 19.4948 27.1157 19.4921C27.2923 19.4893 27.4606 19.4169 27.584 19.2906C27.7072 19.1638 27.7751 18.9933 27.7726 18.8165C27.7701 18.6397 27.6975 18.4712 27.5707 18.3479C27.2695 18.0614 26.9056 17.8491 26.508 17.7279C26.9027 16.3733 26.7467 15.7719 26.38 14.6453C26.3074 14.4248 26.2377 14.2035 26.1707 13.9813L26.1307 13.8479C25.6454 12.2373 25.324 11.1746 26.2467 9.67461C26.3393 9.52397 26.3683 9.34269 26.3273 9.17066C26.2863 8.99862 26.1787 8.84992 26.028 8.75728C25.8774 8.66463 25.6961 8.63562 25.5241 8.67662C25.352 8.71763 25.2033 8.8253 25.1107 8.97594C23.8734 10.9866 24.328 12.4919 24.8547 14.2346L24.8947 14.3679C24.9734 14.6266 25.0454 14.8533 25.112 15.0573C25.4414 16.0719 25.5414 16.4119 25.1387 17.6386C24.6351 17.7302 24.168 17.9633 23.792 18.3106C23.6674 18.4323 23.5953 18.5979 23.5913 18.7721C23.5872 18.9462 23.6515 19.115 23.7703 19.2424C23.8891 19.3698 24.0531 19.4456 24.2271 19.4536C24.4011 19.4616 24.5713 19.4012 24.7014 19.2853ZM33.188 15.3053C33.584 15.3065 33.9752 15.2195 34.3334 15.0506C34.4934 14.9753 34.6169 14.8395 34.6768 14.6731C34.7367 14.5067 34.728 14.3233 34.6527 14.1633C34.5774 14.0033 34.4416 13.8797 34.2752 13.8198C34.1087 13.76 33.9254 13.7686 33.7654 13.8439C33.4376 13.9937 33.0654 14.0141 32.7232 13.9011C32.381 13.7881 32.0942 13.5501 31.92 13.2346C31.8804 13.1545 31.8251 13.0832 31.7573 13.0249C31.6896 12.9666 31.6108 12.9225 31.5257 12.8953C31.4406 12.868 31.3509 12.8582 31.2619 12.8663C31.1729 12.8744 31.0864 12.9003 31.0076 12.9425C30.9289 12.9848 30.8594 13.0424 30.8033 13.112C30.7472 13.1816 30.7057 13.2617 30.6813 13.3477C30.6568 13.4336 30.6499 13.5236 30.6609 13.6123C30.6719 13.701 30.7006 13.7866 30.7454 13.8639C30.9854 14.3119 31.3427 14.6653 31.7587 14.9106C31.0427 16.6506 31.4494 18.4986 31.7814 19.4786C31.8067 19.5646 31.8492 19.6446 31.9062 19.7138C31.9633 19.783 32.0337 19.84 32.1132 19.8813C32.1928 19.9227 32.2799 19.9476 32.3693 19.9545C32.4587 19.9614 32.5486 19.9502 32.6336 19.9216C32.7185 19.893 32.7969 19.8475 32.8639 19.7879C32.9308 19.7283 32.9851 19.6558 33.0235 19.5747C33.0618 19.4937 33.0833 19.4057 33.0869 19.3161C33.0904 19.2265 33.0758 19.1371 33.044 19.0533C32.82 18.3893 32.3854 16.7119 33.0414 15.2853C33.092 15.2879 33.1387 15.3053 33.188 15.3053ZM39.584 27.8773C39.5789 27.7897 39.5565 27.704 39.5181 27.6252C39.4797 27.5464 39.426 27.476 39.3601 27.418C39.2942 27.3601 39.2175 27.3159 39.1344 27.2878C39.0513 27.2597 38.9635 27.2485 38.876 27.2546C38.5563 27.2767 38.2354 27.2354 37.9317 27.1331C37.628 27.0309 37.3475 26.8696 37.1063 26.6586C36.865 26.4476 36.6679 26.1911 36.5261 25.9037C36.3843 25.6163 36.3007 25.3037 36.28 24.9839C36.265 24.8086 36.1826 24.646 36.05 24.5303C35.9174 24.4147 35.7451 24.355 35.5694 24.3639C35.3931 24.3766 35.2291 24.4584 35.1129 24.5915C34.9968 24.7247 34.938 24.8983 34.9494 25.0746C35.004 25.8613 35.304 26.5706 35.76 27.1479C34.688 28.4093 33.284 28.7679 32.5014 28.8599C31.8094 28.9426 31.204 28.8719 30.504 28.7893C29.8627 28.7159 29.1374 28.6319 28.24 28.6586L28.2334 28.6599C28.2067 28.2786 28.116 27.7226 27.8267 27.2599C27.7272 27.1229 27.5794 27.0288 27.4132 26.9966C27.247 26.9644 27.0748 26.9965 26.9313 27.0864C26.7879 27.1763 26.6839 27.3174 26.6405 27.481C26.597 27.6447 26.6174 27.8187 26.6974 27.9679C26.876 28.2546 26.9094 28.7119 26.9094 28.9346C26.2374 29.1759 25.656 29.5306 25.1307 29.8733C24.192 30.4839 23.452 30.9666 22.3387 30.7159C21.3307 30.4853 20.3214 30.4386 19.4654 30.5586C19.332 30.2239 19.1214 29.8239 18.796 29.5159C18.6675 29.3945 18.4959 29.329 18.3192 29.334C18.1424 29.339 17.9748 29.4141 17.8534 29.5426C17.7319 29.6711 17.6665 29.8427 17.6715 30.0195C17.6765 30.1962 17.7515 30.3638 17.88 30.4853C17.9947 30.5933 18.0854 30.7506 18.1587 30.9079C16.688 31.5133 15.9507 32.5253 15.916 32.5746C15.8453 32.6742 15.8033 32.7913 15.7947 32.9131C15.7861 33.0349 15.8112 33.1568 15.8673 33.2653C15.9233 33.3738 16.0081 33.4648 16.1125 33.5283C16.2168 33.5918 16.3366 33.6253 16.4587 33.6253C16.5641 33.6255 16.668 33.6009 16.7621 33.5534C16.8562 33.5059 16.9377 33.4369 17 33.3519C17.0067 33.3413 17.7387 32.3613 19.1827 31.9653C19.9294 31.7599 21 31.7773 22.044 32.0146C22.336 32.0813 22.6067 32.1039 22.8694 32.1079C22.9934 32.3986 23.0414 32.7439 23.048 32.8719C23.0579 33.0419 23.1322 33.2016 23.2559 33.3186C23.3795 33.4355 23.5432 33.5009 23.7134 33.5013L23.7494 33.4999C23.9253 33.4906 24.0904 33.412 24.2085 33.2814C24.3267 33.1507 24.3884 32.9786 24.38 32.8026C24.3578 32.492 24.2996 32.1851 24.2067 31.8879C24.8214 31.6653 25.356 31.3173 25.8587 30.9906C26.6214 30.4933 27.3427 30.0226 28.2854 29.9919C29.0747 29.9639 29.7254 30.0399 30.3534 30.1133C30.9854 30.1866 31.6067 30.2346 32.292 30.1946C32.4134 30.5319 32.404 30.9826 32.3854 31.1333C32.3741 31.2272 32.3828 31.3224 32.4109 31.4126C32.439 31.5029 32.4859 31.5862 32.5484 31.6571C32.611 31.728 32.6879 31.7849 32.774 31.824C32.8601 31.863 32.9535 31.8835 33.048 31.8839C33.2096 31.8837 33.3657 31.8247 33.4871 31.7181C33.6085 31.6114 33.687 31.4642 33.708 31.3039C33.7569 30.8667 33.7302 30.4242 33.6294 29.9959C34.8458 29.6732 35.936 28.9894 36.756 28.0346C37.417 28.4429 38.1887 28.6353 38.964 28.5853C39.0512 28.5795 39.1364 28.5566 39.2148 28.5179C39.2931 28.4792 39.3631 28.4255 39.4207 28.3597C39.4783 28.294 39.5223 28.2175 39.5503 28.1347C39.5784 28.052 39.5898 27.9645 39.584 27.8773Z" fill="#EA596E"/>
</svg>
