<svg width="48" height="48" viewBox="0 0 48 48" fill="none" xmlns="http://www.w3.org/2000/svg">
<g clip-path="url(#clip0_61_11)">
<path d="M24 48C10.7662 48 0 37.2334 0 24C0 10.7666 10.7662 0 24 0C37.2338 0 48 10.7666 48 24C48 37.2334 37.2338 48 24 48Z" fill="#6DC82A"/>
<path d="M48 24C48 10.7666 37.2338 0 24 0V48C37.2338 48 48 37.2334 48 24Z" fill="#61B325"/>
<path d="M17.758 37.955C17.1745 37.955 16.6415 37.6258 16.3806 37.1039L10.5439 25.4304H8.36465C7.51415 25.4304 6.82452 24.7414 6.82452 23.8903C6.82452 23.0392 7.51396 22.3502 8.36465 22.3502H11.4958C12.0793 22.3502 12.6124 22.6793 12.8733 23.2012L17.758 32.9707L27.8613 12.7641C28.1222 12.2423 28.6552 11.9131 29.2387 11.9131H36.5447C37.3952 11.9131 38.0848 12.6021 38.0848 13.4532C38.0848 14.3043 37.3954 14.9933 36.5447 14.9933H30.1907L19.1355 37.1039C18.8746 37.6258 18.3415 37.955 17.758 37.955Z" fill="white"/>
<path d="M36.5447 11.9133H29.2388C28.6553 11.9133 28.1222 12.2425 27.8613 12.7644L24.0203 20.4465V27.3345L30.1908 14.9935H36.5448C37.3953 14.9935 38.0849 14.3044 38.0849 13.4534C38.0848 12.6024 37.3954 11.9133 36.5447 11.9133Z" fill="#FFE6B3"/>
</g>
<defs>
<clipPath id="clip0_61_11">
<rect width="48" height="48" fill="white"/>
</clipPath>
</defs>
</svg>
