<svg width="48" height="48" viewBox="0 0 48 48" fill="none" xmlns="http://www.w3.org/2000/svg">
<path d="M28 2H20C18.8954 2 18 2.89543 18 4V46C18 47.1046 18.8954 48 20 48H28C29.1046 48 30 47.1046 30 46V4C30 2.89543 29.1046 2 28 2Z" fill="#EC5044"/>
<path d="M44 27.99H36C34.8954 27.99 34 28.8854 34 29.99V46C34 47.1046 34.8954 48 36 48H44C45.1046 48 46 47.1046 46 46V29.99C46 28.8854 45.1046 27.99 44 27.99Z" fill="#F6C253"/>
<path d="M12 18H4C2.89543 18 2 18.8954 2 20V46C2 47.1046 2.89543 48 4 48H12C13.1046 48 14 47.1046 14 46V20C14 18.8954 13.1046 18 12 18Z" fill="#41C3F1"/>
</svg>
