<svg width="48" height="48" viewBox="0 0 48 48" fill="none" xmlns="http://www.w3.org/2000/svg">
<g clip-path="url(#clip0_61_16)">
<path d="M44.5638 19.6421C45.1005 18.0259 45.2861 16.3137 45.1083 14.62C44.9304 12.9263 44.3932 11.29 43.5324 9.82055C42.2564 7.5994 40.3079 5.84086 37.968 4.79847C35.6281 3.75607 33.0175 3.48367 30.5128 4.02055C29.0898 2.43768 27.2754 1.25709 25.2517 0.597375C23.2281 -0.0623434 21.0665 -0.17797 18.984 0.262108C16.9015 0.702186 14.9715 1.68247 13.3878 3.10452C11.804 4.52656 10.6224 6.34029 9.96143 8.36355C8.29276 8.70573 6.71634 9.40012 5.33753 10.4003C3.95873 11.4005 2.80928 12.6835 1.96603 14.1636C0.676095 16.381 0.124788 18.9512 0.391807 21.5026C0.658827 24.054 1.73034 26.4544 3.45143 28.3567C2.91276 29.9722 2.72527 31.6841 2.90152 33.3778C3.07777 35.0716 3.61369 36.7082 4.47343 38.1781C5.75111 40.4001 7.70126 42.159 10.0428 43.2014C12.3844 44.2438 14.9965 44.5159 17.5026 43.9783C18.6331 45.2515 20.0223 46.2687 21.5772 46.9622C23.1322 47.6557 24.8172 48.0095 26.5198 47.9999C29.0871 48.0023 31.5887 47.1888 33.6636 45.6769C35.7384 44.165 37.2792 42.0329 38.0634 39.5883C39.7319 39.2456 41.3081 38.5509 42.6868 37.5507C44.0655 36.5505 45.2151 35.2678 46.0588 33.7881C47.3335 31.574 47.8753 29.0134 47.6068 26.4727C47.3383 23.9319 46.2732 21.541 44.5638 19.6421ZM26.5198 44.8583C24.4173 44.8617 22.3806 44.1247 20.767 42.7767L21.0508 42.6159L30.6074 37.0995C30.8453 36.9601 31.0428 36.7611 31.1805 36.5222C31.3181 36.2833 31.3913 36.0127 31.3928 35.7369V22.2631L35.4328 24.6003C35.4528 24.6105 35.4701 24.6252 35.4833 24.6432C35.4965 24.6613 35.5053 24.6822 35.5088 24.7043V35.8695C35.5038 38.252 34.5551 40.5354 32.8704 42.2201C31.1857 43.9047 28.9023 44.8533 26.5198 44.8583ZM7.19843 36.6075C6.14397 34.7868 5.76537 32.6525 6.12923 30.5801L6.41323 30.7505L15.9792 36.2669C16.2159 36.4058 16.4854 36.4791 16.7598 36.4791C17.0343 36.4791 17.3037 36.4058 17.5404 36.2669L29.226 29.5299V34.1947C29.2249 34.2189 29.2184 34.2425 29.2069 34.2638C29.1954 34.2851 29.1792 34.3036 29.1596 34.3177L19.48 39.9003C17.4143 41.0904 14.9607 41.412 12.658 40.7946C10.3554 40.1773 8.39179 38.6714 7.19843 36.6075ZM4.68163 15.7912C5.74339 13.9587 7.41929 12.561 9.41263 11.8456V23.1999C9.40903 23.4743 9.47912 23.7445 9.61558 23.9825C9.75204 24.2205 9.94987 24.4175 10.1884 24.5529L21.8172 31.2615L17.777 33.5985C17.7552 33.6102 17.7308 33.6162 17.706 33.6162C17.6813 33.6162 17.6569 33.6102 17.635 33.5985L7.97443 28.0255C5.91255 26.8304 4.40832 24.8668 3.79116 22.5649C3.17399 20.263 3.49419 17.8103 4.68163 15.744V15.7912ZM37.8742 23.5027L26.2076 16.728L30.2384 14.4C30.2603 14.3883 30.2847 14.3823 30.3094 14.3823C30.3342 14.3823 30.3586 14.3883 30.3804 14.4L40.041 19.9825C41.5181 20.8349 42.7223 22.0898 43.5129 23.6008C44.3036 25.1118 44.6481 26.8165 44.5062 28.516C44.3644 30.2154 43.742 31.8394 42.7118 33.1984C41.6816 34.5574 40.286 35.5953 38.688 36.191V24.8365C38.6796 24.5627 38.6002 24.2957 38.4575 24.0619C38.3148 23.828 38.1139 23.6354 37.8742 23.5027ZM41.8956 17.4565L41.6116 17.2861L32.0646 11.7226C31.8265 11.5828 31.5554 11.5091 31.2792 11.5091C31.0031 11.5091 30.732 11.5828 30.4938 11.7226L18.818 18.4593V13.7948C18.8155 13.771 18.8195 13.7471 18.8295 13.7254C18.8395 13.7038 18.8552 13.6852 18.8748 13.6718L28.5354 8.09855C30.0161 7.24559 31.7089 6.83183 33.4161 6.90566C35.1232 6.9795 36.7741 7.53789 38.1755 8.51552C39.5769 9.49314 40.6711 10.8496 41.3299 12.4262C41.9887 14.0028 42.185 15.7345 41.8958 17.4185L41.8956 17.4565ZM16.613 25.7259L12.573 23.3983C12.5528 23.3862 12.5355 23.3697 12.5224 23.3501C12.5093 23.3305 12.5006 23.3083 12.497 23.2849V12.1484C12.4992 10.4399 12.9878 8.76738 13.9055 7.32635C14.8233 5.88532 16.1323 4.73532 17.6795 4.01083C19.2267 3.28633 20.9482 3.01727 22.6428 3.23511C24.3373 3.45294 25.9347 4.14867 27.2484 5.24095L26.9644 5.40195L17.408 10.918C17.1702 11.0574 16.9727 11.2564 16.835 11.4953C16.6973 11.7342 16.6241 12.0048 16.6226 12.2806L16.613 25.7259ZM18.8082 20.9951L24.0122 17.9955L29.226 20.9951V26.9939L24.0312 29.9933L18.8178 26.9939L18.8082 20.9951Z" fill="white"/>
</g>
<defs>
<clipPath id="clip0_61_16">
<rect width="48" height="48" fill="white"/>
</clipPath>
</defs>
</svg>
