<svg width="48" height="48" viewBox="0 0 48 48" fill="none" xmlns="http://www.w3.org/2000/svg">
<path d="M4.42499 46.5001C1.94999 46.5001 0.82499 44.7001 1.94999 42.5251L21.975 3.15005C23.1 0.975049 24.9 0.975049 26.025 3.15005L46.05 42.5251C47.175 44.7001 46.05 46.5001 43.575 46.5001H4.42499Z" fill="#FFCE31"/>
<path d="M20.85 17.6999L22.95 31.5749C23.175 32.9249 24.9 32.9249 25.125 31.5749L27.15 17.6999C27.525 12.2999 20.475 12.2999 20.85 17.6999Z" fill="#231F20"/>
<path d="M24 40.3498C25.7397 40.3498 27.15 38.9395 27.15 37.1998C27.15 35.4601 25.7397 34.0498 24 34.0498C22.2603 34.0498 20.85 35.4601 20.85 37.1998C20.85 38.9395 22.2603 40.3498 24 40.3498Z" fill="#231F20"/>
</svg>
